<?xml version="1.0" encoding="UTF-8"?><svg id="b" xmlns="http://www.w3.org/2000/svg" viewBox="0 0 1000.0001 578.9067"><defs><style>.d{fill:#0055d7;}.e{fill:#ff6932;}</style></defs><g id="c"><path d="M819.6309,471.433v-16.3556h-23.7213v89.6836h23.7213v-28.9372c0-15.0076,3.4639-26.0873,11.5156-32.4312,5.5599-4.3799,11.9497-6.2678,23.6094-6.1018l3.318-22.7694c-17.2495-3.2739-30.2952,5.1719-38.443,16.9116Zm113.4038-16.355v5.5718c-7.0698-5.5118-16.4736-8.2678-28.2153-8.2678-11.5037,0-21.6274,4.2239-30.373,12.6717-8.7478,8.4478-13.1196,18.6595-13.1196,30.6431,0,12.0997,4.3718,22.4054,13.1196,30.9112,8.7456,8.5057,18.8694,12.7596,30.373,12.7596,11.9797,0,21.3855-2.7559,28.2153-8.2658v1.438c0,7.7878-2.246,13.8976-6.7378,18.3315-4.4939,4.4319-10.5758,6.6498-18.2416,6.6498-5.6339,0-10.1857-.988-13.6597-2.9659-3.4758-1.9779-7.0697-5.3018-10.7837-9.9737,0,0-18.5935,15.5456-18.6115,15.5156,8.3657,12.5397,22.7173,18.8095,43.0548,18.8095,14.7356,0,26.4172-3.7419,35.045-11.2317,8.6257-7.4898,12.9397-18.0015,12.9397-31.5411l-.182-81.0558h-22.8234Zm-7.1879,57.4225c-4.7938,4.3719-10.4237,6.5598-16.8956,6.5598-7.1877,0-13.1196-2.158-17.7915-6.4719-4.6738-4.3118-7.0098-9.9437-7.0098-16.8915s2.3359-12.5817,7.0098-16.8935c4.6719-4.3139,10.6038-6.4719,17.7915-6.4719,6.4719,0,12.1018,2.1879,16.8956,6.5598,4.7919,4.3759,7.1879,9.9758,7.1879,16.8055s-2.396,12.4317-7.1879,16.8036Zm-858.8107-4.9421l-45.6488-85.5777H0v122.7807H23.7233v-66.7922l36.123,66.7922h14.5596l35.945-66.7922v66.7922h23.7233v-122.7807h-21.2074l-45.8307,85.5777Zm155.024-45.2914c-7.9078-6.5898-17.7955-9.8837-29.6552-9.8837-11.7417,0-22.0154,4.5239-30.8231,13.5696-8.8058,9.0438-13.2077,20.3975-13.2077,34.0571s4.3719,24.9813,13.1197,33.967c8.7457,8.9858,19.0494,13.4797,30.9111,13.4797,11.7417,0,21.6254-3.2339,29.6552-9.7057v7.0098h23.7233v-89.6836h-23.7233v7.1898Zm-7.7298,57.0624c-5.1519,4.9719-11.0837,7.4598-17.7915,7.4598-7.3098,0-13.3297-2.4279-18.0615-7.2798-4.7339-4.8519-7.0998-11.3537-7.0998-19.4995s2.3659-14.6776,7.0998-19.5895c4.7319-4.9139,10.7517-7.3678,18.0615-7.3678,6.7078,0,12.6396,2.5159,17.7915,7.5458,5.1539,5.0319,7.7298,11.5037,7.7298,19.4115s-2.5759,14.3476-7.7298,19.3195Zm49.2997,25.4311h23.7233v-122.7806h-23.7233v122.7806Zm111.8043-82.4935c-7.9078-6.5898-17.7935-9.8837-29.6552-9.8837-11.7417,0-22.0154,4.5239-30.8212,13.5696-8.8078,9.0438-13.2097,20.3975-13.2097,34.0571s4.3719,24.9813,13.1176,33.967c8.7478,8.9858,19.0515,13.4797,30.9132,13.4797,11.7416,0,21.6274-3.2339,29.6552-9.7057v7.0098h23.7214v-89.6836h-23.7214v7.1898Zm-7.7298,57.0624c-5.1518,4.9719-11.0837,7.4598-17.7915,7.4598-7.3098,0-13.3296-2.4279-18.0615-7.2798-4.7338-4.8519-7.1018-11.3537-7.1018-19.4995s2.368-14.6776,7.1018-19.5895c4.7319-4.9139,10.7518-7.3678,18.0615-7.3678,6.7078,0,12.6397,2.5159,17.7915,7.5458,5.1539,5.0319,7.7298,11.5037,7.7298,19.4115s-2.5759,14.3476-7.7298,19.3195Zm368.4428-66.947c-13.0616,0-24.0533,4.4639-32.9791,13.3896s-13.3896,20.3394-13.3896,34.2391,4.4319,25.2793,13.2976,34.145c8.8679,8.8658,19.7695,13.2997,32.7092,13.2997,10.0657,0,18.8715-2.3359,26.4213-7.0098,5.1559-3.1919,9.4457-7.4178,12.8676-12.6777,.0161,.032-17.0015-12.4816-17.0015-12.4816-4.6738,7.9078-12.1017,11.8617-22.2874,11.8617-5.5099,0-10.3318-1.888-14.4677-5.6619-4.1318-3.7759-6.7998-8.8378-7.9957-15.1876h68.2921v-8.0878c-.476-13.4196-5.1199-24.4113-13.9257-32.9791-8.8057-8.5658-19.3215-12.8497-31.5411-12.8497Zm-22.1053,37.203c1.3159-5.2699,4.1018-9.3458,8.3557-12.2217,4.252-2.8739,8.8379-4.3119,13.7496-4.3119,5.0319,0,9.4637,1.376,13.2976,4.1319,3.8359,2.7559,6.4698,6.8918,7.9098,12.4017h-43.3127Zm-186.4768-37.203c-13.0616,0-24.0533,4.4639-32.9791,13.3896s-13.3896,20.3394-13.3896,34.2391,4.4319,25.2793,13.2976,34.145c8.8677,8.8658,19.7695,13.2997,32.7091,13.2997,10.0657,0,18.8715-2.3359,26.4213-7.0098,5.1558-3.1919,9.4457-7.4178,12.8677-12.6777,.016,.032-17.0016-12.4816-17.0016-12.4816-4.6738,7.9078-12.1017,11.8617-22.2874,11.8617-5.5098,0-10.3317-1.888-14.4676-5.6619-4.1319-3.7759-6.7998-8.8378-7.9958-15.1876h68.2922v-8.0878c-.4761-13.4196-5.1199-24.4113-13.9257-32.9791-8.8057-8.5658-19.3215-12.8497-31.5411-12.8497Zm-22.1053,37.203c1.3159-5.2699,4.1019-9.3458,8.3557-12.2217,4.2519-2.8739,8.8378-4.3119,13.7496-4.3119,5.0319,0,9.4637,1.376,13.2976,4.1319,3.8359,2.7559,6.4698,6.8918,7.9099,12.4017h-43.3128Zm133.924-37.2024c-11.6217,0-21.0275,3.5939-28.2153,10.7837v-8.0878h-23.7233v89.6815h23.7233v-39.7189c0-20.6075,7.4279-30.9112,22.2854-30.9112,5.51,0,9.9138,1.918,13.2097,5.7518,3.2939,3.8319,4.9419,8.9238,4.9419,15.2756v49.6026h23.7233v-54.6365c0-11.1417-3.2958-20.2195-9.8856-27.2292-6.5898-7.0078-15.2756-10.5117-26.0593-10.5117Zm334.3689,92.3774h23.7234v-89.6815h-23.7234v89.6815ZM217.2549,445.2169c7.9658,0,14.4076-6.2618,14.4076-14.0076s-6.4418-14.0076-14.4076-14.0076-14.4077,6.2618-14.4077,14.0076,6.4418,14.0076,14.4077,14.0076Zm768.3374,0c7.9658,0,14.4077-6.2618,14.4077-14.0076s-6.4419-14.0076-14.4077-14.0076-14.4075,6.2618-14.4075,14.0076,6.4418,14.0076,14.4075,14.0076Zm-805.371,0c7.9658,0,14.4076-6.2618,14.4076-14.0076s-6.4418-14.0076-14.4076-14.0076-14.4076,6.2618-14.4076,14.0076,6.4418,14.0076,14.4076,14.0076Zm260.1867,26.2161v-16.3556h-23.7213v89.6836h23.7213v-28.9372c0-15.0076,3.4639-26.0873,11.5157-32.4312,5.5599-4.3799,11.9497-6.2678,23.6094-6.1018l3.3179-22.7694c-17.2495-3.2739-30.2952,5.1719-38.443,16.9116Z"/><g><path class="e" d="M587.6966,225.3607c62.2309,0,112.6793-50.4484,112.6793-112.6793S649.9275,0,587.6966,0s-112.6793,50.4504-112.6793,112.6813,50.4464,112.6793,112.6793,112.6793"/><path class="d" d="M750.0731,142.5325c-.028-3.2165-2.6048-4.6338-4.0521-4.9677-2.4009-.5517-4.9016,.4202-6.0351,3.2745-16.2555,40.9316-60.3234,118.1005-152.2892,118.1005-80.0167,0-122.3323-58.609-139.2386-96.122-12.706-28.1931-43.4531-71.6304-100.2366-71.4525-41.4786,.1319-81.5155,27.5801-94.4063,71.9216-12.1269,41.714,6.8662,78.395,25.61,107.1559,66.002,101.2747,166.6721,116.9893,214.2239,116.9893,62.1569,0,124.024-19.0791,181.7111-74.2753,64.4679-61.6852,74.9349-144.2346,74.7131-170.6242"/></g></g></svg>